<?xml version="1.0" encoding="utf-8"?>
<!-- Generator: Adobe Illustrator 19.0.0, SVG Export Plug-In . SVG Version: 6.00 Build 0)  -->
<svg version="1.1" id="图层_1" xmlns="http://www.w3.org/2000/svg" xmlns:xlink="http://www.w3.org/1999/xlink" x="0px" y="0px"
	 viewBox="0 0 100 100" style="enable-background:new 0 0 100 100;" xml:space="preserve">
<style type="text/css">
	.st0{fill:#FFDF33;}
</style>
<path id="XMLID_2_" class="st0" d="M81.9,82.2c4.1-6.7,6.4-14.6,6.4-23c0-24.6-19.9-44.5-44.5-44.5c-24.7,0-32.2,13.7-32.2,13.7
	l0,53.8H81.9z M55.8,62.4c2.1,0,3.8,1.7,3.8,3.8s-1.7,3.8-3.8,3.8h-8.8v4c0,1.9-1.6,3.5-3.5,3.5s-3.5-1.6-3.5-3.5v-4h-8
	c-2.1,0-3.8-1.7-3.8-3.8s1.7-3.8,3.8-3.8h8v-6.8h-8c-2.1,0-3.8-1.7-3.8-3.8s1.7-3.8,3.8-3.8h4.2l-4.9-4.7c-1.4-1.3-1.4-3.6-0.1-4.9
	c1.3-1.4,3.6-1.4,4.9-0.1l7.3,7l7.2-8c1.3-1.4,3.5-1.6,4.9-0.3c1.4,1.3,1.6,3.5,0.3,4.9l-5.4,6h5.3c2.1,0,3.8,1.7,3.8,3.8
	s-1.7,3.8-3.8,3.8h-8.8v6.8H55.8z"/>
</svg>
