<?xml version="1.0" encoding="utf-8"?>
<!-- Generator: Adobe Illustrator 19.0.0, SVG Export Plug-In . SVG Version: 6.00 Build 0)  -->
<svg version="1.1" id="图层_1" xmlns="http://www.w3.org/2000/svg" xmlns:xlink="http://www.w3.org/1999/xlink" x="0px" y="0px"
	 viewBox="0 0 100 100" style="enable-background:new 0 0 100 100;" xml:space="preserve">
<style type="text/css">
	.st0{fill:#86DEBE;}
</style>
<g id="XMLID_14_">
	<g id="XMLID_13_">
		<circle id="XMLID_4_" class="st0" cx="50.3" cy="37.9" r="12.1"/>
		<path id="XMLID_7_" class="st0" d="M27.5,69.8c0-7.7,10.2-17.3,22.8-17.3s22.8,10.6,22.8,17.3"/>
	</g>
	<g id="XMLID_5_">
		<ellipse id="XMLID_8_" class="st0" cx="80.3" cy="43.2" rx="8.9" ry="8.5"/>
		<path id="XMLID_11_" class="st0" d="M75.6,70.3l23.1,0c0-5.8-6.9-15-18.4-15c-4.2,0-9,1.2-12.3,2.9C70.5,58.5,75.6,64.6,75.6,70.3
			z"/>
	</g>
	<g id="XMLID_9_">
		<ellipse id="XMLID_12_" class="st0" cx="20.4" cy="42.7" rx="8.9" ry="8.5"/>
		<path id="XMLID_10_" class="st0" d="M25.2,69.8L2,69.8c0-5.8,6.9-15,18.4-15c4.2,0,9,1.2,12.3,2.9C30.3,58,25.1,64.1,25.2,69.8z"
			/>
	</g>
</g>
</svg>
