<?xml version="1.0" encoding="utf-8"?>
<!-- Generator: Adobe Illustrator 19.0.0, SVG Export Plug-In . SVG Version: 6.00 Build 0)  -->
<svg version="1.1" id="图层_1" xmlns="http://www.w3.org/2000/svg" xmlns:xlink="http://www.w3.org/1999/xlink" x="0px" y="0px"
	 viewBox="0 0 230 60" style="enable-background:new 0 0 230 60;" xml:space="preserve">
<style type="text/css">
	.st0{fill:#181717;}
	.st1{fill-rule:evenodd;clip-rule:evenodd;fill:#181717;}
</style>
<g id="XMLID_1561_">
	<g id="XMLID_1562_">
		<path id="XMLID_1567_" class="st0" d="M71.9,10h10.3c-1.3,21.2-5.5,34.3-10.5,46.5h4.5c3.7-9.2,6.6-19.1,8.5-31.3H111
			c2,0,3.5,1.6,3.5,3.5V49c0,1.9-1.5,3.5-3.5,3.5H97.1l-2.4,4H111c4.2,0,7.6-3.4,7.6-7.6V28.7c0-4.2-3.5-7.6-7.6-7.6H85.3
			c0.4-3.8,0.8-6.9,1.1-11.1h32.3V5.9H71.9V10z"/>
		<polygon id="XMLID_1566_" class="st0" points="136.4,3.8 132.4,3.8 132.4,15.5 127.5,15.5 127.6,15.4 131.1,8.4 127.1,8.4 
			121,19.5 121,19.5 121,19.5 121,19.5 121,19.5 132.4,19.5 132.4,34.4 121,39.1 121,43.4 132.4,38.9 132.4,56.4 136.4,56.4 
			136.4,37.1 140.4,35.4 140.4,31 136.4,32.7 136.4,19.5 140.4,19.5 140.4,15.5 136.4,15.5 		"/>
		<path id="XMLID_1565_" class="st0" d="M166.3,10.8H149l4.1-7h-4.6l-5.7,11.1h7.6c-2,17.3-5.6,30.9-9,41.8h4.1
			c3.6-11.3,7-24.2,9-41.8h6.3c-1.4,17.2-4.7,30.8-7.9,41.8h4.2c3.3-11.3,6.2-24.1,7.7-41.8h1.5c1.9,0,3.3,1.5,3.3,3.3v31.5
			c0,1.8-1.5,3.3-3.3,3.3h-3.2l-2.4,4h5.6c4.1,0,7.4-3.3,7.4-7.3V18.2C173.7,14.2,170.4,10.8,166.3,10.8z"/>
		<path id="XMLID_1564_" class="st0" d="M193.3,8.5h18.9c2.7,0,4.2,1.7,5.7,3.9l7.8,12.2l3.3-2.1l-7.8-12.2c-2.3-3.4-4.3-5.7-9-5.7
			h-18.9c-4.7,0-6.7,2.3-9,5.7l-7.8,12.2l3.3,2.1l7.8-12.2C189.1,10.2,190.6,8.5,193.3,8.5z"/>
		<path id="XMLID_1563_" class="st0" d="M186,50.6V31c0-1.9,1.5-3.4,3.4-3.4h28.2c0.7,0,1.2,0.5,1.2,1.2V38c0,0.7-0.5,1.2-1.2,1.2
			h-18v4h18c2.9,0,5.2-2.4,5.2-5.2v-9.2c0-2.8-2.3-5.2-5.2-5.2h-28.2c-4,0-7.4,3.3-7.4,7.3v19.6c0,4,3.3,5.9,7.4,5.9h34.5l2.3-4
			h-36.7C187.5,52.5,186,52.4,186,50.6z"/>
	</g>
</g>
<g id="XMLID_1538_">
	<path id="XMLID_1540_" class="st1" d="M71.7,39.7c-1.8,1.8-3.8,1.9-6,1.1c-0.9-0.3-1.7,0.2-2.3,0.8c-0.2,0.2-0.3,0.4-0.6,0.8
		c0-2.3-0.1-2.5-2.1-3.3c-1.7-0.6-3.2-1.3-4-3.1c-0.7,2.2-0.3,5.1,1.5,6.5c2.5,1.9,2.9,4.5,1,6.9c-1.2,1.6-2.9,2.7-5,2.4
		c-2.1-0.2-3.2-1.8-3.9-3.6c-0.5-1.3-0.6-2.6-0.6-3.9c0-11.5,0-23.1,0-34.6c0-4.7-3.4-8.2-8.1-8.2c-9.5,0-18.9,0-28.4,0
		C8.4,1.4,5,4.8,5,9.7c0,6.8,0,13.6,0,20.4c0,7.2,0,14.3,0,21.5c0,4.5,3.7,8.2,8.1,8.2c10.7,0,21.5,0,32.2,0c2.3,0,4.7-0.2,6.9-0.8
		c4.8-1.2,8.1-3.9,9.5-8.8c0.3-0.9,0.6-1.9,1-2.8c0.5-1.5,1.5-2.2,3.1-2.3c0.4,0,0.7,0,1.1,0C69.5,45,72,42.2,71.7,39.7z M41.8,55.1
		C41.8,55.2,41.7,55.2,41.8,55.1c-9.6,0-19.1,0.1-28.6,0c-2.3,0-3.7-1.7-3.7-4.4c0-2.4,0-4.8,0-7.3c0-11.1,0-22.2,0-33.2
		c0-0.2,0-0.3,0-0.5c0-2.6,1.1-3.8,3.8-4.1c0.4,0,0.7,0,1.1,0c8.8,0,17.5,0,26.3,0c0.4,0,0.7,0,1.1,0.1c-3,0.4-6,0.7-9,1.1
		c-4,0.5-8.1,1-12.1,1.4c-1.7,0.2-3.4,0.4-5.1,0.6c-1.5,0.2-2.2,1-2.2,2.5c0,12.6,0,25.1,0,37.7c0,2,0.9,3,2.8,3.3
		c4.1,0.5,8.3,0.9,12.4,1.4c4.1,0.4,8.2,0.9,12.3,1.3C41.2,55,41.4,55,41.8,55.1C41.8,55.1,41.8,55.1,41.8,55.1z M22.8,19.9
		c0,1.7-1.4,3-3.1,3c-1.7,0-3-1.4-3-3.1c0-1.6,1.4-3,3.1-3.1C21.4,16.8,22.8,18.2,22.8,19.9z"/>
	<path id="XMLID_1539_" class="st1" d="M41.7,55.2c0,0,0-0.1,0-0.1c0.2,0,0.5,0,0.9,0C42.2,55.2,42,55.2,41.7,55.2z"/>
</g>
</svg>
